<svg xmlns="http://www.w3.org/2000/svg" xmlns:xlink="http://www.w3.org/1999/xlink" aria-hidden="true" role="img" class="iconify iconify--logos" width="31.88" height="32" preserveAspectRatio="xMidYMid meet" viewBox="0 0 256 257"><defs><linearGradient id="IconifyId1813088fe1fbc01fb466" x1="-.828%" x2="57.636%" y1="7.652%" y2="78.411%"><stop offset="0%" stop-color="#41D1FF"></stop><stop offset="100%" stop-color="#BD34FE"></stop></linearGradient><linearGradient id="IconifyId1813088fe1fbc01fb467" x1="43.376%" x2="50.316%" y1="2.242%" y2="89.03%"><stop offset="0%" stop-color="#FFEA83"></stop><stop offset="8.333%" stop-color="#FFDD35"></stop><stop offset="100%" stop-color="#FFA800"></stop></linearGradient></defs><path fill="url(#IconifyId1813088fe1fbc01fb466)" d="M255.153 37.938L134.897 252.976c-2.483 4.44-8.862 4.466-11.382.048L.875 37.958c-2.746-4.814 1.371-10.646 6.827-9.67l120.385 21.517a6.537 6.537 0 0 0 2.322-.004l117.867-21.483c5.438-.991 9.574 4.796 6.877 9.62Z"></path><path fill="url(#IconifyId1813088fe1fbc01fb467)" d="M185.432.063L96.44 17.501a3.268 3.268 0 0 0-2.634 3.014l-5.474 92.456a3.268 3.268 0 0 0 3.997 3.378l24.777-5.718c2.318-.535 4.413 1.507 3.936 3.838l-7.581 28.56c-.483 1.817-2.524 2.988-4.317 2.5l-33.89-9.39c-2.686-.744-5.302 1.507-4.804 4.26l12.718 50.25c.598 2.753 3.836 4.26 6.487 2.99l50.443-23.99c2.651-1.27 5.889.237 6.487 2.99l12.718 50.25c.498 2.753-2.118 5.004-4.804 4.26l-33.89-9.39c-1.793-.488-3.834.683-4.317 2.5l-7.581 28.56c-.477 2.331 1.618 4.373 3.936 3.838l24.777-5.718a3.268 3.268 0 0 0 3.997 3.378l-5.474 92.456a3.268 3.268 0 0 0 2.634 3.014l89.012 17.438c2.686.744 5.302-1.507 4.804-4.26l-12.718-50.25c-.598-2.753-3.836-4.26-6.487-2.99l-50.443 23.99c-2.651 1.27-5.889-.237-6.487-2.99l-12.718-50.25c-.498-2.753 2.118-5.004 4.804-4.26l33.89 9.39c1.793.488 3.834-.683 4.317-2.5l7.581-28.56c.477-2.331-1.618-4.373-3.936-3.838l-24.777 5.718a3.268 3.268 0 0 0-3.997-3.378l5.474-92.456a3.268 3.268 0 0 0-2.634-3.014L185.432.063Z"></path></svg>
